<svg width="182" height="42" viewBox="0 0 182 42" fill="none" xmlns="http://www.w3.org/2000/svg">
<path d="M10.32 0.48C14.96 0.48 18.92 1.85333 22.2 4.6C25.5067 7.34667 27.16 10.56 27.16 14.24C27.16 17.92 26.04 20.8267 23.8 22.96C21.56 25.0933 18.72 26.1333 15.28 26.08C13.44 26.0533 11.9733 26.04 10.88 26.04H9C8.22667 26.04 7.84 25.7467 7.84 25.16C7.84 24.9467 8.06667 24.4 8.52 23.52C10.0133 20.5333 11.1467 17.48 11.92 14.36C9.17333 14.36 6.6 13.6 4.2 12.08C1.8 10.56 0.6 8.84 0.6 6.92C0.6 4.97333 1.50667 3.41333 3.32 2.24C5.13333 1.06667 7.46667 0.48 10.32 0.48ZM10.16 2.12C8.4 2.12 7.01333 2.49333 6 3.24C4.98667 3.98667 4.48 5.09333 4.48 6.56C4.48 8 5.17333 9.29333 6.56 10.44C7.97333 11.56 9.85333 12.2667 12.2 12.56C13.0267 9.06667 13.5067 6.81333 13.64 5.8L16.04 6.04C16.04 7.69333 15.6933 9.88 15 12.6C15.2133 12.6 16.4533 12.4667 18.72 12.2L18.92 13.52C18.3867 13.7067 16.9067 13.9867 14.48 14.36C13.44 17.72 12.36 20.6267 11.24 23.08C13.9067 23.2933 16.12 23.4 17.88 23.4C19.6667 23.4 21.08 22.7467 22.12 21.44C23.16 20.1067 23.68 18.32 23.68 16.08C23.68 12.2133 22.36 8.92 19.72 6.2C17.08 3.48 13.8933 2.12 10.16 2.12ZM39.9438 21.28L40.8638 22C40.0371 23.1467 38.9038 24.1067 37.4638 24.88C36.0238 25.6267 34.6238 26 33.2638 26C31.9038 26 30.8104 25.6 29.9838 24.8C29.1571 24 28.7438 22.9467 28.7438 21.64C28.7438 19.1867 30.0371 16.7733 32.6238 14.4C35.2371 12.0267 37.8771 10.84 40.5438 10.84C42.3038 10.84 43.1838 11.5333 43.1838 12.92C43.1838 14.36 42.2504 15.8133 40.3838 17.28C38.5438 18.7467 35.9438 20.08 32.5838 21.28C32.8238 21.8933 33.1971 22.3733 33.7038 22.72C34.2104 23.0667 34.7304 23.24 35.2638 23.24C36.4104 23.24 37.9704 22.5867 39.9438 21.28ZM32.3838 20.08C34.5438 19.3333 36.3971 18.4 37.9438 17.28C39.4904 16.16 40.2638 15.1333 40.2638 14.2C40.2638 13.8533 40.1304 13.5467 39.8638 13.28C39.5971 13.0133 39.2904 12.88 38.9438 12.88C37.6904 12.88 36.3304 13.6667 34.8638 15.24C33.4238 16.7867 32.5971 18.4 32.3838 20.08ZM56.0816 10.36L55.7216 11.92C55.2682 11.8667 54.6816 11.84 53.9616 11.84C51.2949 11.84 49.9616 12.72 49.9616 14.48C49.9616 14.8533 50.4949 15.9467 51.5616 17.76C52.6549 19.5733 53.2016 20.7867 53.2016 21.4C53.2016 22.84 52.7082 23.9733 51.7216 24.8C50.7616 25.6 49.4682 26 47.8416 26C45.6016 26 43.8016 24.76 42.4416 22.28L43.9616 21.2C44.3349 21.4933 44.7349 21.8533 45.1616 22.28C45.5882 22.68 45.9082 22.96 46.1216 23.12C46.6282 23.5733 47.1882 23.8 47.8016 23.8C48.4149 23.8 48.9482 23.5867 49.4016 23.16C49.8549 22.7067 50.0816 22.16 50.0816 21.52C50.0816 20.8533 49.4949 19.6267 48.3216 17.84C47.1749 16.0533 46.6016 14.8 46.6016 14.08C46.6016 12.7733 47.1482 11.7733 48.2416 11.08C49.3616 10.3867 50.8149 10.04 52.6016 10.04C54.4149 10.04 55.5749 10.1467 56.0816 10.36ZM64.4038 9.04C62.9104 9.04 62.1638 8.44 62.1638 7.24C62.1638 6.57333 62.3504 6.01333 62.7238 5.56C63.0971 5.10667 63.5771 4.88 64.1638 4.88C64.7504 4.88 65.2304 5.05333 65.6038 5.4C65.9771 5.74667 66.1638 6.2 66.1638 6.76C66.1638 7.32 66.0038 7.84 65.6838 8.32C65.3638 8.8 64.9371 9.04 64.4038 9.04ZM63.8838 20.84L64.6838 21.52C64.0438 22.7467 63.1904 23.8 62.1238 24.68C61.0838 25.5333 60.1371 25.96 59.2838 25.96C57.7904 25.96 57.0438 24.92 57.0438 22.84C57.0438 20.2533 58.1104 16.88 60.2438 12.72C60.7238 11.8133 61.0038 11.28 61.0838 11.12L62.8038 12.16C62.2438 13.1733 61.5504 14.7867 60.7238 17C59.9238 19.2133 59.5238 20.64 59.5238 21.28C59.5238 21.8933 59.6571 22.3333 59.9238 22.6C60.1904 22.8667 60.5104 23 60.8838 23C61.6038 23 62.6038 22.28 63.8838 20.84ZM84.1869 24.56L84.2269 25.52C83.9602 25.68 82.7469 26.16 80.5869 26.96C79.7335 32.0533 78.4802 35.7333 76.8269 38C75.1735 40.2667 73.1469 41.4 70.7469 41.4C69.6269 41.4 68.7335 41.04 68.0669 40.32C67.4002 39.6 67.0669 38.6667 67.0669 37.52C67.0669 35.2267 68.1202 33.08 70.2269 31.08C72.3335 29.1067 75.1469 27.5467 78.6669 26.4C79.0669 24.6133 79.7869 22.0933 80.8269 18.84C79.0402 21.56 77.4135 23.4 75.9469 24.36C74.5069 25.32 73.2002 25.8 72.0269 25.8C70.8535 25.8 69.9602 25.48 69.3469 24.84C68.7602 24.2 68.4669 23.3467 68.4669 22.28C68.4669 20.52 69.2002 18.7333 70.6669 16.92C72.1335 15.08 73.9735 13.5867 76.1869 12.44C78.4269 11.2667 80.5869 10.68 82.6669 10.68L82.9869 12.08C80.0269 12.4 77.4802 13.44 75.3469 15.2C73.2402 16.96 72.1869 18.6533 72.1869 20.28C72.1869 20.9733 72.4002 21.5467 72.8269 22C73.2535 22.4533 73.7735 22.68 74.3869 22.68C75.2935 22.68 76.6669 21.72 78.5069 19.8C80.3469 17.88 81.6402 16.24 82.3869 14.88L83.8669 15.72C82.4002 19.64 81.3869 22.9467 80.8269 25.64L84.1869 24.56ZM78.4269 27.6C76.1069 28.6667 74.1869 29.9467 72.6669 31.44C71.1469 32.9333 70.3869 34.2933 70.3869 35.52C70.3869 36.16 70.5735 36.68 70.9469 37.08C71.3202 37.48 71.7869 37.68 72.3469 37.68C73.4669 37.68 74.5735 36.8933 75.6669 35.32C76.7602 33.7467 77.6802 31.1733 78.4269 27.6ZM101.676 21.16L102.516 21.8C101.929 22.9733 101.116 23.96 100.076 24.76C99.0623 25.56 98.1423 25.96 97.3156 25.96C96.489 25.96 95.8356 25.72 95.3556 25.24C94.8756 24.76 94.6356 24.16 94.6356 23.44C94.6356 22.72 95.089 21.4667 95.9956 19.68C96.929 17.8667 97.3956 16.5333 97.3956 15.68C97.3956 15.3067 97.2356 14.9733 96.9156 14.68C96.6223 14.36 96.2623 14.2 95.8356 14.2C94.4756 14.2 93.1023 15.24 91.7156 17.32C90.329 19.3733 88.7823 22.3467 87.0756 26.24L84.6756 25.4C85.1823 22.3067 85.9023 19.2933 86.8356 16.36C87.7956 13.4 88.6756 11.28 89.4756 10L91.1156 10.52C90.369 12.4133 89.4223 15.68 88.2756 20.32C91.9556 14.0267 95.3423 10.88 98.4356 10.88C99.1023 10.88 99.649 11.1067 100.076 11.56C100.529 12.0133 100.756 12.5467 100.756 13.16C100.756 13.7733 100.676 14.3333 100.516 14.84C100.356 15.32 99.849 16.4667 98.9956 18.28C98.169 20.0667 97.7556 21.1867 97.7556 21.64C97.7556 22.0933 97.889 22.4533 98.1556 22.72C98.4223 22.96 98.6756 23.08 98.9156 23.08C99.1556 23.08 99.3556 23.04 99.5156 22.96C99.6756 22.88 99.849 22.76 100.036 22.6C100.249 22.44 100.436 22.2933 100.596 22.16C100.756 22.0267 100.942 21.8533 101.156 21.64C101.396 21.4 101.569 21.24 101.676 21.16ZM136.03 2L138.55 3.24C136.844 6.01333 134.817 8.48 132.47 10.64C130.15 12.8 127.057 14.9467 123.19 17.08C123.937 20.9467 124.857 24.04 125.95 26.36C127.044 28.7067 128.47 30.0133 130.23 30.28V32.12C130.017 32.1467 129.737 32.16 129.39 32.16C127.604 32.16 125.87 30.92 124.19 28.44C122.537 25.96 121.044 22.2933 119.71 17.44C118.564 21.04 116.817 23.8933 114.47 26C112.124 28.08 109.684 29.12 107.15 29.12C105.844 29.12 104.764 28.76 103.91 28.04C103.084 27.3467 102.67 26.3867 102.67 25.16C102.67 23.9067 103.23 22.6133 104.35 21.28C105.47 19.9467 107.004 18.8267 108.95 17.92L109.87 19.36C107.47 21.0667 106.27 22.6667 106.27 24.16C106.27 24.88 106.51 25.4667 106.99 25.92C107.47 26.3467 108.097 26.56 108.87 26.56C110.684 26.56 112.244 25.8 113.55 24.28C114.884 22.7333 116.07 20.04 117.11 16.2C118.417 11.3733 119.75 8.21333 121.11 6.72C121.724 6.02667 122.617 5.26667 123.79 4.44C121.95 4.49333 120.07 4.81333 118.15 5.4C116.23 5.96 114.55 6.81333 113.11 7.96C111.67 9.08 110.95 10.3333 110.95 11.72C110.95 13.5067 111.764 14.9333 113.39 16L112.59 17.24C111.097 16.52 109.924 15.5867 109.07 14.44C108.217 13.2933 107.79 12.1067 107.79 10.88C107.79 9.2 108.71 7.61333 110.55 6.12C112.39 4.62667 114.644 3.46667 117.31 2.64C120.004 1.81333 122.644 1.4 125.23 1.4C126.83 1.4 127.63 1.74667 127.63 2.44C127.63 2.89333 127.164 3.46667 126.23 4.16C124.524 5.44 123.204 7.10667 122.27 9.16C121.364 11.2133 120.617 13.6133 120.03 16.36C123.07 15.24 125.977 13.3867 128.75 10.8C131.55 8.18667 133.977 5.25333 136.03 2ZM152.505 21.96L153.425 22.64C153.052 23.44 152.359 24.2 151.345 24.92C150.359 25.64 149.452 26 148.625 26C147.052 26 146.265 25.1733 146.265 23.52C146.265 22.7467 146.465 21.8267 146.865 20.76L145.385 22.28C143.945 23.7467 142.692 24.7333 141.625 25.24C140.585 25.7467 139.559 26 138.545 26C137.532 26 136.759 25.72 136.225 25.16C135.719 24.5733 135.465 23.7733 135.465 22.76C135.465 20.8933 136.185 19.0533 137.625 17.24C139.065 15.4 140.905 13.9067 143.145 12.76C145.385 11.6133 147.625 11.0267 149.865 11L149.945 12.32L148.265 12.68C145.839 13.2133 143.692 14.28 141.825 15.88C139.985 17.48 139.065 19.08 139.065 20.68C139.065 22.2533 139.705 23.04 140.985 23.04C142.185 23.04 143.665 22.2 145.425 20.52C147.185 18.84 148.652 16.8667 149.825 14.6L151.505 15.6C149.852 18.9333 149.025 21.0533 149.025 21.96C149.025 22.3333 149.145 22.6533 149.385 22.92C149.652 23.16 149.905 23.28 150.145 23.28C150.412 23.28 150.585 23.2667 150.665 23.24C150.745 23.2133 150.825 23.1867 150.905 23.16C150.985 23.1067 151.079 23.04 151.185 22.96C151.319 22.88 151.425 22.8 151.505 22.72C151.612 22.64 151.772 22.52 151.985 22.36C152.199 22.2 152.372 22.0667 152.505 21.96ZM163.455 21.52L164.335 22.52C163.669 23.56 162.855 24.3733 161.895 24.96C160.962 25.5467 160.015 25.84 159.055 25.84C158.095 25.84 157.335 25.5733 156.775 25.04C156.215 24.48 155.935 23.72 155.935 22.76C155.935 20.52 156.775 17.4267 158.455 13.48C157.095 13.6933 155.735 14.0133 154.375 14.44L154.095 12.88L154.055 12.84C155.389 12.28 157.135 11.8267 159.295 11.48C159.509 11.08 159.989 10.1067 160.735 8.56C162.229 5.49333 163.295 3.50667 163.935 2.6L165.655 3.28C165.389 3.86667 164.922 4.85333 164.255 6.24C163.589 7.6 162.842 9.14667 162.015 10.88C163.215 10.8 164.162 10.76 164.855 10.76C165.549 10.76 166.082 10.8667 166.455 11.08V12.8C166.082 12.72 165.535 12.68 164.815 12.68C164.122 12.68 162.869 12.8 161.055 13.04C159.482 16.56 158.695 19.12 158.695 20.72C158.695 21.3333 158.882 21.84 159.255 22.24C159.655 22.64 160.175 22.84 160.815 22.84C161.482 22.84 162.362 22.4 163.455 21.52ZM178.498 21.28L179.418 22C178.592 23.1467 177.458 24.1067 176.018 24.88C174.578 25.6267 173.178 26 171.818 26C170.458 26 169.365 25.6 168.538 24.8C167.712 24 167.298 22.9467 167.298 21.64C167.298 19.1867 168.592 16.7733 171.178 14.4C173.792 12.0267 176.432 10.84 179.098 10.84C180.858 10.84 181.738 11.5333 181.738 12.92C181.738 14.36 180.805 15.8133 178.938 17.28C177.098 18.7467 174.498 20.08 171.138 21.28C171.378 21.8933 171.752 22.3733 172.258 22.72C172.765 23.0667 173.285 23.24 173.818 23.24C174.965 23.24 176.525 22.5867 178.498 21.28ZM170.938 20.08C173.098 19.3333 174.952 18.4 176.498 17.28C178.045 16.16 178.818 15.1333 178.818 14.2C178.818 13.8533 178.685 13.5467 178.418 13.28C178.152 13.0133 177.845 12.88 177.498 12.88C176.245 12.88 174.885 13.6667 173.418 15.24C171.978 16.7867 171.152 18.4 170.938 20.08Z" fill="white"/>
</svg>
